<svg width="1415" height="765" viewBox="0 0 1415 765" fill="none" xmlns="http://www.w3.org/2000/svg">
<path d="M-252.833 67.5652C-274.115 25.4931 -186.359 11.8556 -42.7981 11.7457C-36.9161 4.51216 -33.5947 0 -33.5947 0L-35.8371 11.7508C287.973 12.4658 884.537 79.1404 1165.13 46.9178C1573.69 0 1294.05 539.852 1387.69 518.573C1481.33 497.294 1326.39 784.559 1020.69 763.073C714.985 741.587 153.067 506.423 151.033 620.983C148.998 735.543 -148.033 599.704 -148.033 599.704L-35.8371 11.7508C-38.1717 11.7457 -40.4921 11.744 -42.7981 11.7457C-76.4708 53.1557 -194.06 183.752 -252.833 67.5652Z" fill="#FFF2B3" fill-opacity="0.34"/>
</svg>
