<svg width="223" height="51" viewBox="0 0 223 51" fill="none" xmlns="http://www.w3.org/2000/svg">
<path d="M53.56 36V13.6H56.6V22.848H67.992V13.6H71.032V36H67.992V25.728H56.6V36H53.56ZM88.2497 29.952H78.6497V27.2H88.2497V29.952ZM83.0017 16.576H83.8977L77.0177 36H73.8177L81.8497 13.6H85.0497L93.0817 36H89.8817L83.0017 16.576ZM102.272 36.448C101.344 36.448 100.416 36.3787 99.4885 36.24C98.5605 36.1013 97.7018 35.9253 96.9125 35.712C96.1232 35.488 95.4672 35.2533 94.9445 35.008L95.3605 31.776C95.9365 32.0533 96.6298 32.3413 97.4405 32.64C98.2618 32.9387 99.1472 33.1893 100.096 33.392C101.046 33.5947 102.006 33.696 102.976 33.696C104.416 33.696 105.558 33.4347 106.4 32.912C107.254 32.3787 107.68 31.552 107.68 30.432C107.68 29.5893 107.467 28.9013 107.04 28.368C106.614 27.824 105.968 27.36 105.104 26.976C104.251 26.592 103.179 26.208 101.888 25.824C100.662 25.4613 99.5312 25.0347 98.4965 24.544C97.4618 24.0427 96.6298 23.376 96.0005 22.544C95.3818 21.7013 95.0725 20.5867 95.0725 19.2C95.0725 18.016 95.3765 16.9707 95.9845 16.064C96.6032 15.1467 97.5045 14.432 98.6885 13.92C99.8832 13.408 101.344 13.152 103.072 13.152C104.544 13.152 105.894 13.312 107.12 13.632C108.358 13.952 109.376 14.304 110.176 14.688L109.856 17.92C108.64 17.1947 107.478 16.6773 106.368 16.368C105.27 16.0587 104.128 15.904 102.944 15.904C101.632 15.904 100.544 16.1493 99.6805 16.64C98.8272 17.1307 98.4005 17.9307 98.4005 19.04C98.4005 19.7867 98.5925 20.4 98.9765 20.88C99.3605 21.3493 99.9312 21.7547 100.688 22.096C101.446 22.4267 102.39 22.7627 103.52 23.104C105.078 23.5733 106.416 24.112 107.536 24.72C108.656 25.3173 109.515 26.0587 110.112 26.944C110.71 27.8187 111.008 28.9067 111.008 30.208C111.008 31.168 110.827 32.032 110.464 32.8C110.102 33.568 109.558 34.224 108.832 34.768C108.107 35.312 107.195 35.728 106.096 36.016C105.008 36.304 103.734 36.448 102.272 36.448ZM119.008 36V16.352H112.48V13.6H128.576V16.352H122.048V36H119.008Z" fill="#FFAA00"/>
<path d="M128.838 41.504L128.422 38.88C129.574 38.88 130.396 38.6293 130.886 38.128C131.377 37.6267 131.622 36.832 131.622 35.744V13.6H134.662V36.448C134.662 38.208 134.252 39.488 133.43 40.288C132.609 41.0987 131.356 41.504 129.67 41.504H128.838ZM151.875 29.952H142.275V27.2H151.875V29.952ZM146.627 16.576H147.523L140.643 36H137.443L145.475 13.6H148.675L156.707 36H153.507L146.627 16.576ZM162.427 36V26.304L154.523 13.6H157.979L164.635 24.48H163.227L169.883 13.6H173.339L165.467 26.304V36H162.427ZM185.625 29.952H176.025V27.2H185.625V29.952ZM180.377 16.576H181.273L174.393 36H171.193L179.225 13.6H182.425L190.457 36H187.257L180.377 16.576Z" fill="#FFE55E"/>
<path d="M25.8321 24.9261C25.4839 29.1109 28.974 30.0797 31.8022 33.9805C36.0112 39.5773 40.178 38.5823 41.3611 35.065C42.4873 31.6845 39.38 28.7902 39.6764 25.0649C39.9727 21.3397 43.6974 18.3972 43.1737 14.9727C42.6499 11.5481 38.6288 10.5191 33.4123 16.0489C29.8778 19.8721 26.2988 20.7906 25.8321 24.9261Z" fill="#FFE55E"/>
<path d="M19.786 13.683C22.4141 16.0575 25.8326 16.1948 27.3911 14.1163C28.9496 12.0378 28.0702 8.46554 25.3853 6.22777C22.7572 3.85325 19.3387 3.71598 17.7802 5.79448C16.2785 7.73623 17.1578 11.3085 19.786 13.683Z" fill="#FFAA00"/>
<path d="M11.8605 24.0123C15.4642 24.7076 18.9765 23.2803 19.7002 20.5343C20.367 17.9251 18.0279 15.1895 14.3056 14.445C10.7019 13.7497 7.18958 15.177 6.46592 17.923C5.79908 20.5323 8.25677 23.317 11.8605 24.0123Z" fill="#FFAA00"/>
<path d="M12.466 36.6556C16.0697 37.3509 19.582 35.9236 20.3057 33.1776C20.9725 30.5683 18.6334 27.8328 14.9111 27.0883C11.3074 26.393 7.79507 27.8203 7.07142 30.5663C6.40457 33.1755 8.86226 35.9603 12.466 36.6556Z" fill="#FFAA00"/>
</svg>
