<svg xmlns="http://www.w3.org/2000/svg" xmlns:xlink="http://www.w3.org/1999/xlink" version="1.1" x="0px" y="0px" viewBox="0 0 66 82.5" enable-background="new 0 0 66 66" xml:space="preserve"><g><path d="M13.2,35.8c-1.1,1.3-2.6,2.1-4.2,2.3c0,0.9,0,1.7,0,2.5c1.5,5.7,3.1,13.5,2.1,18.1   c-0.4,1.6,0.6,3.1,2.2,3.5c1.7,0.4,3.2-0.7,3.5-2.2c1.7-7.5-1.6-19.6-3.2-24.7L13.2,35.8z"/><path d="M24.1,23.1c0.9,1.3,2,2.5,3.2,3.6c0.7-0.1,2,0.3,2.5,0.3c0.4-0.3,1.2-0.6,2.5-0.6c0.1,0,0.3,0,0.4,0   l0.2-0.3c-3.2-2.2-5.9-4.9-6.6-7.5C26,21.4,24.3,22.8,24.1,23.1z"/><path d="M37,29.5l0.8,1c0.1-0.7-0.2-1.5-0.8-1.9C37,28.9,37,29.2,37,29.5z"/><path d="M15.7,18.7c0.2-1.6,1.6-2.8,3.2-2.6c1.6,0.2,2.8,1.6,2.6,3.2c-0.2,1.7-0.1,3.3,0.3,4.9l2-2.3   c2.1-2.5,1.8-6.1-0.6-8.2c-2.5-2.1-6.1-1.8-8.2,0.6L3.6,27.6c-1.1,1.3-1.5,3.3-1.5,4.2c0.4,10.9,0,19.8-1.1,27.2   c-0.2,1.6,0.9,3.1,2.5,3.3c1.6,0.2,3.1-0.9,3.3-2.5c1-6.4,1.4-13.8,1.3-22.6c1.6,0,3.3-0.7,4.4-2l5-5.8   C16,26.1,15.3,22.4,15.7,18.7z"/><path d="M32.9,12.9c2-2.3,1.7-5.9-0.6-7.9c-2.3-2-5.9-1.7-7.9,0.6c-2,2.3-1.7,5.9,0.6,7.9   C27.4,15.6,30.9,15.3,32.9,12.9z"/><path d="M52.8,54.9c-3.7,0.2-3-1.9-3-1.9c2.2-5.1-6.2-13.6-14-23.1c0.2-1.2-0.5-5.9-0.5-5.9l-2.1,3.5   c-2.4-0.3-3,0.5-3,0.5C29.6,28.1,29,28,29,28c-5.4-1.1-1.2,3.1-1.2,3.1c-2.5,0.6,0.3,1.5,0.3,1.5c2.8,0.2,3.1,1,3.1,1   c-0.4,1.9,0.3,2.9,0.4,3c0,0,0,0,0,0c0.1,0.3,0.3,0.5,0.3,0.5c-2.2,4.4,1.7,8.2,1.7,8.2l-0.1,3.4c-1,5-2.1,4.8-2.1,4.8   c-2.6,0.6-1.5,1.8-1.5,1.8c2.5,0.8,4.4-2.1,4.4-2.1c0.1,1.3-1.9,2.6-1.9,2.6c-2.2,1.5,0.9,1.6,0.9,1.6c4.1-1.3,3.9-8.7,3.9-8.7   c2.5,1.8,3.7,6.7,3.7,6.7c-3.4,0-3.1,0.8-3.1,0.8C37,57.8,43,57.8,43,57.8c2.7,0.9,3.9,0,3.9,0C50.6,56.2,58,58,58,58   c3.7,1.5,7,1.4,7,1.4C60.3,54.4,52.8,54.9,52.8,54.9z"/><path d="M28.8,34.7c-5.6-2.9-9-9.2-8.2-15.5c0.1-1.1-0.6-2-1.7-2.2c-1.1-0.1-2,0.6-2.2,1.7   C15.8,26.7,20,34.5,27,38.2c1,0.5,2.1,0.1,2.6-0.8C30.1,36.4,29.8,35.2,28.8,34.7z"/></g><text x="0" y="81" fill="#000000" font-size="5px" font-weight="bold" font-family="'Helvetica Neue', Helvetica, Arial-Unicode, Arial, Sans-serif">Created by ProSymbols</text><text x="0" y="86" fill="#000000" font-size="5px" font-weight="bold" font-family="'Helvetica Neue', Helvetica, Arial-Unicode, Arial, Sans-serif">from the Noun Project</text></svg>