<?xml version="1.0" encoding="UTF-8"?>
<svg version="1.1" viewBox="0 0 1600 1310" width="1280" height="1280" xmlns="http://www.w3.org/2000/svg">
<path transform="translate(521,203)" d="m0 0h345l16 3 12 5 10 7 10 9 9 14 5 13 1 9h174l13 2 16 6 11 6 13 10 10 11 9 15 6 16 2 11v116h89l15 3 21 10 10 8 8 7 10 13 8 17 4 17 1 8v292l-1 33-3 16-6 15-7 11-9 10-7 7-15 9-13 5-14 3-7 1-455 1-4 8-6 18-7 16-11 22-16 24-11 13-7 8-18 18-14 11-15 11-23 13-17 8-25 9-53 16-53 15-40 12-52 15-24 6-30 5-12 1h-19l-15-1-34-6-20-5-25-10-16-8-17-9-17-12-10-8-10-9-21-21-13-17-15-23-9-17-8-20-9-27-9-30-19-66-8-29-12-41-10-35-5-27-2-23v-25l2-25 5-25 7-23 10-24 12-22 12-18 10-13 12-13 14-14 14-11 15-11 15-9 21-11 27-10 111-33 74-22h2v-91l2-16 6-17 9-15 11-12 9-8 4-3v-10l4-16 5-12 8-11 4-5 12-9 12-6 11-3z" fill="#FA8695"/>
<path transform="translate(521,203)" d="m0 0h345l16 3 12 5 10 7 10 9 9 14 5 13 1 9h174l13 2 16 6 11 6 13 10 10 11 9 15 6 16 2 11v116l-1 72-1 2h-11l-12 2-15 6-10 7-10 10-7 12-4 12-1 5v16l3 14 4 10 8 11 9 9 14 8 9 3 5 1 20 1v16l-5 19-7 14-8 11-3 4h-2l-2 4-10 8-11 7-16 6-12 2h-145l-13-13-15-11-17-10-11-5-21-7-26-5-12-1h-25l-40 3-9 1h-29l-19-5-14-7-11-9-10-13-8-15-1-3-31-1h-98l-24 1-17 1-5-9v-6l5-5 8-3 9-1 29-1h116l-9-19-10-16-9-11-11-11-11-8h-11l-32 2h-55l-9-2-6-4-3-9h-15l-29-4-20-6-16-7-10-7-3-3v-70l-1-11 1-91 2-16 6-17 9-15 11-12 9-8 4-3v-10l4-16 5-12 8-11 4-5 12-9 12-6 11-3z" fill="#D8ADDC"/>
<path transform="translate(1182,456)" d="m0 0h90l15 3 21 10 10 8 8 7 10 13 8 17 4 17 1 8v292l-1 33-3 16-6 15-7 11-9 10-7 7-15 9-13 5-14 3-7 1-455 1h-152l-17-3-15-6-14-9-12-11-8-10-8-16-3-10-2-6-1-6v-116h-75l-21-2-15-5-14-7-13-10-10-11-8-13-6-14-3-12-1-18v-135l2-2 8 6 16 8 15 5 20 4 17 2h15l4 10 8 4 6 1h55l32-2h11l13 10 13 13 12 17 10 19 2 7-116 1-29 1-13 2-7 4-1 2v6l4 8 41-2h98l31 1 10 19 11 14 11 8 12 6 19 5h29l32-3 17-1h25l18 2 20 4 24 8 19 10 17 12 12 11 5 5h145l12-2 16-6 15-10 7-6 1-2h2l2-4 6-8 7-12 5-15 2-9 1-16h-20l-11-3-14-7-10-9-7-8-6-10-4-14-1-6v-16l3-12 7-14 9-10 9-8 14-7 10-3 8-1h9l2 1z" fill="#794573"/>
<path transform="translate(412,438)" d="m0 0 2 3 1 8v212l2 20 7 18 7 12 11 13 10 8 10 6 15 6 14 3 14 1 75 1 1 116 2 11 3 9 8 16 8 11 8 8 13 9 12 6 12 4 13 2 151 1-9 26-7 16-3 4-1-3v-6h-10l-5-3-8-1-1 5-3 3-7-1-3-2h-4l-15 1-7 1v-3l2-1-1-3-12-3-3-4-1-6-3-2 5-5-3-2v-2l-3 1-2-1-15-1-9 1-7-2h-20l-6 2-11 1-1-4-7-1-6 2-11-7-4-5-4-2 1-5h-2v-2l-2-1-4-4-1 2-3 1-10-1-3-6 1-4-5-4-5-2-4-7-4-4-1-2-3-2v-4l3-1v2l1-1-2-3-51-18-43-12-29-7-25-5-30-5-23-2-11-1h-40l-30 3-6 2-14 2-10 2-2 3-13 3 3 3 4-1 7-1v2h-2v2l-5 3 4 5-3 2-13 3-2 1-8-3-2-6 3-5 8-3-3-1-13 1-4 1-17 4-12 4-5 1-15 6-11 5-9 5-13 5-7 2-4 4-4 2h-3v2l-5 2-6 1-9 2-2 2-8-29-12-41-10-35-5-27-2-23v-25l2-25 5-25 7-23 10-24 12-22 12-18 10-13 12-13 14-14 14-11 15-11 15-9 21-11 27-10 111-33 44-13z" fill="#F9A9A5"/>
<path transform="translate(521,203)" d="m0 0h345l16 3 12 5 10 7 10 9 9 14 5 13 1 10v19l-4 14-7 13-7 9-4 4h-2v2l-19 10-6 2h-5v2h-269l-91-1-10-2-15-6-11-8-7-7-6-9-7-16-2-9v-8h-2l1-13 6-18 6-10 8-10 12-9 12-6 11-3z" fill="#FDFDFC"/>
<path transform="translate(415,520)" d="m0 0 11 7 14 7 15 5 20 4 17 2h15l4 10 8 4 6 1h55l32-2h11l13 10 13 13 12 17 10 19 2 7-116 1-29 1-13 2-7 4-1 2v6l4 8 41-2h98l31 1 10 19 11 14 11 8 12 6 19 5h29l32-3 17-1h25l18 2 20 4 24 8 19 10 17 12 12 11 5 6-382 1h-75l-21-2-15-5-14-7-13-10-10-11-8-13-6-14-3-12-1-18v-135z" fill="#9E62A5"/>
<path transform="translate(1411,1038)" d="m0 0h23l18 3 15 6 14 8 11 9 9 9 8 7 15 15 8 11 9 16 5 15 2 13v25l-3 16-5 13-6 11-6 9-13 15-7 7-7 8-11 11-18 12-14 6-12 3-9 1h-29l-15-3-13-5-12-7-9-7-12-11-8-7-15-14-11-14-8-16-3-8-4-17-1-6v-13l5-25 7-17 10-16 12-13 1-2h2l2-4 7-7 7-8 10-9 14-9 16-7 13-3z" fill="#F9AAA5"/>
<path transform="translate(927,255)" d="m0 0 2 3v5h108l25 1 7 2 9 6 11 9 11 11 10 13 9 15 6 14 5 19 2 17v9l-3 19-6 20-7 14-8 11-9 10-10 9-16 9-15 5-23 4-16 1-23-2-23-5-23-7-20-9-15-9-10-8-4-3v-2l-4-2-12-13-12-18-14-25-12-18-13-15-4-4v-2h45v-2l13-4 15-8h2v-2l8-7 5-7 7-15 3-11v-19z" fill="#B782BE"/>
<path transform="translate(586,755)" d="m0 0h8l12 4 16 8 9 5 13 9 11 10 2 1v2h2l7 8 11 13 12 17 14 21 11 12 11 8 14 7 14 3h21l14-3 23-8 16-8 27-14 20-8 21-6 17-3 16-1 19 2 13 3 14 5 16 9 13 11 9 11 12 19 8 12 7 9 7 8 14 11 11 7 112 1v1l-371 1h-152l-17-3-15-6-5-4-2-4-10-8-9-9-9-14-5-12-3-13-1-14v-50l1-49z" fill="#9E62A4"/>
<path transform="translate(739,486)" d="m0 0h101l23 2 16 4 6 3 6 7 1 2v31l-2 17-5-1-14-4-19-3h-43l-64 4-121 10-44 3h-55l-9-2-6-4-3-11v-31l2-12 2-1 52-3 98-7 52-3z" fill="#FDF1EE"/>
<path transform="translate(1301,1156)" d="m0 0 9 3 13 2 7 2 19 2 17 2 10 1h37l17 1h62l22-3 7-1 19-2 4-1 2 1 1 5v15l-5 17-8 15-6 9-13 15-7 7-7 8-11 11-18 12-14 6-12 3-9 1h-29l-15-3-13-5-12-7-9-7-12-11-8-7-15-14-11-14-8-16-3-8-4-17v-18z" fill="#FA8695"/>
<path transform="translate(148,1062)" d="m0 0 5 1 6 4 1 2h2l2 5 3 1 2 4 3 1 6 7 2 1v2l7 1-1 3 10 4v2h6l5 3v2l4 1v3l6 1 7 2 2 2 5 2 9 2h11l6 2 7-3 6 3h13l7 1 3 2 11 1 4 2 6-1 4-3h4l7 2v-2l7-1 4 1 5-1v3h2l1 2 10-1 11 1 1 1 10 2 3 3 3 1 9-1 9 2h7l3 3 4-1 5 1 2-1 3 6v2h3v-2l5-2h3v3h2v3l4 1 6-2h4l4 4 6-2 15-1 7-1h11l9-3 2 1 1-2 1 2h14l7-3 12-2 21-6 16-4 6-1 9-2h2l1-2 6-1 4-2 8-1 8-3 9-2 9-3 7-2 9-4 10-3 22-11h2l-1 4-8 5h-4l-1 3h-2l-1 3-18 8-33 11-40 12-53 15-40 12-52 15-24 6-30 5-12 1h-19l-15-1-34-6-20-5-25-10-16-8-17-9-17-12-10-8-10-9-21-21-13-17-7-11-3-7z" fill="#F7768C"/>
<path transform="translate(412,438)" d="m0 0 2 3 1 8v50h-2l-2-10h2l-1-3 1-3v-8l-1-2v-6h-2v-5l-3-6-1-1v-3-2h-5l-4 5-6 1-1 6-4 10v3l2 4 1 6 2-2v8l-1 2h-2l-2 6-6 12-4 1-1-1-1 6-1 7-2 8-4 1v7l-2 4-3-3 1 9-2 1-1-5v1l-2 1-3 9-2-1h-15l-9-3-22-6-15-5-21-6-31-8-26-6-14-2-9-3h-7l-10 4-14 9-8 6-5 4h-3v2l-7 6h-2v2l-5 4-4 5-8 7-9 9-2 4h-2l-2 4-2 1 2-4 7-9 11-12 14-14 14-11 15-11 15-9 21-11 27-10 111-33 44-13z" fill="#F2C7C2"/>
<path transform="translate(557,624)" d="m0 0h145l168 2 133 3 10 1 3 4v9l-3 6-3 2-7 1h-125l-93-2-53-2-82-1h-98l-24 1-17 1-5-9v-6l5-5 8-3 9-1z" fill="#FDF0EE"/>
<path transform="translate(184,516)" d="m0 0h10v2l6 1 19 3 36 9 31 8 19 6 1 3 2 1h-21l-4 2-1 7-8 3-1 7-7 10-4 4-3 1h-14l-6 4-1 3-6 2h-7l-17 3-13 3-6-1v-2l-14 3h-3l-3-2v-2l-9-2-1-1-13 1-7 2-9 4-5 2-1-5 3-4-6 2-7 4h-7v-7l-5 3h-2v2l-3 3h-2l-1 4h-2l-1 5-2 3h-3l-1 5-6 9-8 16-2 1 3-9 8-16 10-18 10-14 5-5h2l2-5 15-15h2l1-3h2l1-3h2l1-3h2v-2l7-6h2v-2l7-4 6-5 12-8 12-6z" fill="#FDB6B3"/>
<path transform="translate(1182,456)" d="m0 0h90l15 3 21 10 10 8 7 6-3 1-2-1v-2h-3v-3h-3v-2l-6-1-7-4-2-4-6-3h-11l-10-2h-11l-11-1-43-1-3-1-17 2h-2l-1 68-1 128h-20l-11-3-14-7-10-9-7-8-6-10-4-14-1-6v-16l3-12 7-14 9-10 9-8 14-7 10-3 8-1h9l2 1z" fill="#9E62A5"/>
<path transform="translate(1235,777)" d="m0 0h11l12 2 12 6 8 6 7 10 5 11 1 9v11l-2 8-4 10-9 11-10 7-15 5h-15l-14-5-11-7-7-6-7-8-7-11-3-6-2-9v-11l4-11 3-4h2l1-3 5-4 19-8z" fill="#9D61A4"/>
<path transform="translate(412,438)" d="m0 0 2 3 1 8v50h-2l-2-10h2l-1-3 1-3v-8l-1-2v-6h-2v-5l-3-6-1-1v-3-2h-5l-4 5-6 1-1 6-4 10v3l2 4 1 6 2-2v8l-1 2h-2l-2 6-6 12-4 1-1-1-1 6-1 7-2 8-4 1v7l-2 4-3-3 1 9-2 1-1-5v1l-2 1-3 9-2-1h-15l-9-3-22-6-21-7 3-1 11 1h6l-1-4 4-8 1-4 3-3 4-8v-4l1-2h2l2-4 4-6 5-10 5-3-2-5 1-6 2-3 14-7 5-3h3v-2l9-3 13-6 13-4 5-3z" fill="#EEBCB9"/>
<path transform="translate(551,19)" d="m0 0 10 1 10 6 7 7 8 13 6 16 2 11 1 17-2 21-6 21-4 8-4 1-5-10-8-21-11-21-12-16-7-8-6-12v-12l4-9 7-8z" fill="#FA8695"/>
<path transform="translate(1204,458)" d="m0 0 6 1 44 1 13 1h8l9 2h9l8 5v3l4 1 9 4v2h3v3h3v2l6 1 10 13 8 17 3 11-1 4v-2l-4-1-3-4-6-16-4-5-2-4-7-6-3-3v-2l-3-1v-2l-5-2-6-3-3-1v-2h-7l-6-1-5-1-10 2-14 8-20 9-13 4-11 3-17 4-6-1-3-9v-2h-2l-1 8h-1v-38l4-1z" fill="#864F82"/>
<path transform="translate(586,755)" d="m0 0h8l12 4 16 8 9 5 13 9 11 10 2 1v2h2l7 8 11 13 1 3-2 1-2-1v-3l-2 3h-8-4l-6-4-1-2-9-1-12-3-3 3-4-2-2-2h-7l-8 1-8 5h-2l-2 4h-5l-1 5-1 3-3 1 1 2h-2v27h-1v-50l1-49z" fill="#955792"/>
<path transform="translate(771,779)" d="m0 0h12l10 4 7 5 2 6h2l4 8 1 10-3 10-6 9-10 8-8 4-11 3h-8l-9-4-7-8-3-8v-11l4-17 7-10 8-6z" fill="#955792"/>
<path transform="translate(725,263)" d="m0 0h110l16 2 2 3v6l-2 3h-73l-67 2-25 1h-59l-5-2-2-3v-6l4-3 60-2z" fill="#985B97"/>
<path transform="translate(355,119)" d="m0 0h8l8 4 7 7 14 21 8 9 11 9 4 4-1 4h-17l-14-3-14-6-11-8-9-9-5-10-1-9 4-8 5-4zm38 39m1 1 1 2zm1 2 6 7v-3l-4-4z" fill="#FEFDFC"/>
<path transform="translate(684,108)" d="m0 0 10 1 8 5 4 5v10l-4 6-6 5-14 4-25 5-15 6-7 4-5-1 3-9 6-11 8-10 7-7 10-7 10-4z" fill="#F2C7C3"/>
<path transform="translate(551,19)" d="m0 0 10 1 10 6 7 7 8 13 6 16 2 11 1 17-2 21-6 21-4 8-4 1-5-10-8-21-11-21-12-16-7-8-6-12v-12l4-9 7-8zm-2 7-8 3-3 5-2 5 1 14 3 5 5 4 6 8 7 10h2l2 6 4 6 5 11 3 5 4 9 4 1 4-11 1-7 2-6-1-17-3-9-3-10-2-3-1-5-3-3-3-7-2-1-2-5-5-4-8-4z" fill="#F9ABA6"/>
<path transform="translate(539,231)" d="m0 0h8l9 3 7 6 3 5 1 6v13l-2 4-5 5-10 6-2 1h-10l-8-3-10-9-2-9v-10l4-8 8-7z" fill="#885085"/>
<path transform="translate(451,284)" d="m0 0h4l6 15 5 9 8 10 7 7 15 9 11 4 7 1 99 1-2 2-29 5-25 1-26-1-16-2-21-5-16-6-19-9-12-7-13-9-1-6 3-6h2l2-4 3-1 1-3z" fill="#B782BE"/>
<path transform="translate(335,219)" d="m0 0h12l10 4 8 6 4 7v8l-5 6-12 6-5 1h-15l-8-4-5-6-2-9 3-9 9-8z" fill="#FA8695"/>
<path transform="translate(758,812)" d="m0 0 4 1 2 5 4-1v-2l9-1h3l9-2 2 4 4 1-1 6 9-3-1 9-9 8-11 6-11 3h-8l-9-4-7-8-2-5v-10l5-3v3l4-1 3-5z" fill="#9D61A4"/>
<path transform="translate(387,295)" d="m0 0h9l6 4-1 4-14 12-8 9-8 16-6 9-4 1-6-4-4-5-1-2v-9l4-9 7-11 10-8 10-5z" fill="#F9ABA6"/>
<path transform="translate(1204,458)" d="m0 0 6 1 44 1 13 1h8l9 2h9l8 5-3 1-8-3h-8l-10 7-6 2-10 4h-3v2h-6l-2-2 1-2h-2v-2h-9v-2h-5l-1-3-6-1-7-2-6 1h-18l-7-4v10h-1v-13l4-1z" fill="#955792"/>
<path transform="translate(1357,1257)" d="m0 0 8 1 3 4 10 5v2l7 2 9 3v2l13 1 5 1 14-1h10l9-1 7-1 2 1 1-2 5-1 12-5 15-8 4-1-5 6-10 7-11 7-5 3-14 4-9 1h-29l-15-3-13-5-12-7-9-7-1-4-2-1z" fill="#F7778D"/>
<path transform="translate(517,378)" d="m0 0 4 2 2 7v15l-4 14-4 6-5 5-5 2-7-1-6-5v-7l5-10 12-15z" fill="#F7768C"/>
<path transform="translate(483,119)" d="m0 0h12l8 4 5 6 1 8-4 8-8 6-5 1-9-3-5-5-4-7v-9l3-5 3-3z" fill="#F1C6C2"/>
<path transform="translate(853,488)" d="m0 0h10l16 4 6 3 6 7 1 2v31l-2 17-5-1-14-4-10-2-1-2 13-2 9-2 1-2v-17l-2-12-4-7-10-6-7-3-1-3h-6z" fill="#FEF7F2"/>
<path transform="translate(309,843)" d="m0 0h18l3 3 7-2 8 1 2-1v2l3 1h1l3 1-1 2-7 2-3-1v-2l-5 1-1 2-4 1-2-3h-2l-1 2-7-1-1 2-6-2-10-1-12 2-8 4-5 3-9 1-4 1-7-7v-3l9-4 16-2 19-1z" fill="#FAA9A4"/>
<path transform="translate(1182,456)" d="m0 0h90l15 3 21 10 10 8 7 6-3 1-2-1v-2h-3v-3h-3v-2l-6-1-7-4-2-4-6-3h-11l-10-2h-11l-11-1-43-1-3-1-17 2h-2l-1 68-3 1z" fill="#A469AA"/>
<path transform="translate(1282,465)" d="m0 0h8l11 4v2l4 1 9 4v2h3v3h3v2l6 1 10 13 8 17 3 11-1 4v-2l-4-1-3-4-6-16-4-5-2-4-7-6-3-3v-2l-3-1v-2l-5-2-6-3-3-1v-2h-7l-6-1-5-1-10 1 4-5z" fill="#895185"/>
<path transform="translate(673,625)" d="m0 0h124l35 1-1 2-14 1h-51l-10 1h-74l-7-3z" fill="#FEF7F2"/>
<path transform="translate(675,118)" d="m0 0h12l6 3 2 2-1 7-4 4-4 2-19 2-5-3 1-7 3-5 7-4z" fill="#FAAAA5"/>
<path transform="translate(502,334)" d="m0 0 23 2h63l19 1 105 1v-2h14v1l149 1v1h-269l-91-1-10-2z" fill="#FDF2EE"/>
<path transform="translate(1344,528)" d="m0 0 4 3 1 8v258l-2 2v-263l-3 1-1-7z" fill="#B27DB5"/>
<path transform="translate(554,382)" d="m0 0 8 1 6 4v2l3 1 3 5v9l-3 3-6 1-7-3-6-7-2-4v-9z" fill="#F2C7C2"/>
<path transform="translate(739,486)" d="m0 0h101l10 1-1 2-6 1h-93l-18 1-7-2v-2z" fill="#FEF7F2"/>
<path transform="translate(515,277)" d="m0 0h6l8 5 6 3 1 1v5l-6 9-4 4-4-2-3-7v-3l-4 1h-9l-1-3 7-8z" fill="#864F83"/>
<path transform="translate(756,203)" d="m0 0h110l16 3 12 5 1 2-18-6-132-1 4-2z" fill="#FCF1ED"/>
<path transform="translate(568,275)" d="m0 0 3 1 4 6 1 4 3 2v4h-10l-4 1-1 7-5 1-6-10-1-5 15-10z" fill="#8B5388"/>
<path transform="translate(542,245)" d="m0 0 7 2 4 5v7l-4 5-3 2h-7l-6-5-1-2v-7l5-6z" fill="#FEFCFB"/>
<path transform="translate(459,290)" d="m0 0 2 3 8 17 12 13 13 8 14 5 7 1 91 1 7 1v1h-99l-10-2-10-4-14-9-10-10-7-10-5-10z" fill="#E4B9D0"/>
<path transform="translate(787,261)" d="m0 0h17l40 1 6 2v1l-17-1h-108l-103 3 1-2 45-2 45-1z" fill="#E9BECA"/>
<path transform="translate(509,501)" d="m0 0h16l2 2-10 9-5 18-2 7h-2l-1-5v-19z" fill="#FEF7F2"/>
<path transform="translate(1e3 630)" d="m0 0h13l3 4v9l-3 6-3 2h-13l2-5 6-5v-6l-3-2v-2z" fill="#FEF7F2"/>
<path transform="translate(535,244)" d="m0 0h13l6 4 1 4v10l-3 5h-2v2l-4 1h-9l-5-5-2-7 1-10zm7 1-6 2-4 5v7l5 6 2 1h7l6-5 1-2v-7l-4-5z" fill="#A369A8"/>
<path transform="translate(372,315)" d="m0 0h1l-1 9-7 15-3 1-3-2v-10l1-3h2l1-5 5-4z" fill="#FB8695"/>
<path transform="translate(563,268)" d="m0 0 2 1-4 7 3-2h6l1 2-4 1-9 6-5 3 1 7-4-2v-7l1-3-10 1-10-3-5-5 4 2 8 3h10l11-6z" fill="#F3DDE5"/>
<path transform="translate(707,642)" d="m0 0 50 1-3 2-10 1-3 1h-15l-16-1-8-2v-1z" fill="#FEF8F3"/>
<path transform="translate(696,488)" d="m0 0h23l-4 2-17 4-16-1-7-2 2-2z" fill="#FEF7F2"/>
<path transform="translate(483,119)" d="m0 0h12l8 4 5 6 1 8-4 8-6 5-1-2h-2l1-3 6-2v-2h2l1-10-3-4v-2l-12-3-2-1-7 1-4 4-1 6-2-2v-5l5-5z" fill="#FEF2EF"/>
<path transform="translate(528,235)" d="m0 0 2 1-7 7-3 8-1 7h2v7h2l1 4 5 2 1 3 20 4-2 2h-10l-8-3-10-9-2-9v-10l4-8z" fill="#9F64A3"/>
<path transform="translate(459,290)" d="m0 0 2 3 8 17 12 13 13 8 14 5 7 1-1 2h-7l-13-5-14-9-10-10-7-10-5-10z" fill="#E3B8D1"/>
<path transform="translate(531,283)" d="m0 0 5 3v5l-6 9-4 4-4-2-3-7v-3l-4 1h-9l-1-3 2-3h2v3h12l3 8 3 1v-2h3l3-12h-2z" fill="#A56BAB"/>
<path transform="translate(927,832)" d="m0 0 20 2 5 1v1h-15-4-6l-6 1h-18l-7 1h-5l4-2 17-3z" fill="#955792"/>
<path transform="translate(613,553)" d="m0 0h15l1 3 2 1-7 1h-26l3-3z" fill="#FCF4F1"/>
<path transform="translate(567,283)" d="m0 0 4 5 5 2h2l1-2v4h-10l-4 1-1 7-5 1-1-4 4 2 1-5-3-3-2-1 2-5 4 1v-2z" fill="#995D99"/>
<path transform="translate(344,232)" d="m0 0h5l3 2 4 1 2 4h-2v2l-4 1-2-2-5 3-4-3 1-5h2z" fill="#F7758C"/>
<path transform="translate(538,229)" d="m0 0h8l11 4 2 3-5-2-7-2h-8l-11 4-7 8-2 5v17l-2-3-1-9 2-9 6-9 8-5z" fill="#E3B8CE"/>
<path transform="translate(1344,528)" d="m0 0 4 3v86h-1v-81l-3 1-1-7z" fill="#8C5389"/>
<path transform="translate(908,628)" d="m0 0h31l3 2-4 2h-18l-12-3z" fill="#FEF8F3"/>
<path transform="translate(669,618)" d="m0 0 1 2h2v3h-96v-1l92-1z" fill="#955792"/>
<path transform="translate(508,540)" d="m0 0 4 5 4 6 6 7v2l-6-1-6-4-2-6z" fill="#FAEFEF"/>
<path transform="translate(787,261)" d="m0 0h17l40 1 6 2v1l-17-1-57-1v-1z" fill="#E3B7CE"/>
<path transform="translate(134,699)" d="m0 0h11l-3 2-14 2-16 2-25 4-4-1v-1l31-5 13-2z" fill="#FEB6B3"/>
<path transform="translate(335,219)" d="m0 0 4 1-12 5-3 3-4 10 1 5 4 6v2l3 1v2h3v2l-5-2-5-4-4-9 2-10 7-8z" fill="#F9ABA6"/>
<path transform="translate(458,253)" d="m0 0 2 2-1 7v17l3 12 5 12 4 7-1 2-5-8-6-14-2-9v-8h-2l1-13z" fill="#FEF3F0"/>
<path transform="translate(646,491)" d="m0 0h10l-4 4-3 1h-17l-4-3 3-1z" fill="#FEF7F2"/>
<path transform="translate(552,247)" d="m0 0 2 1 1 4v10l-3 5h-2v2l-4 1h-9l-5-6h3l1 2h9l6-5 1-2z" fill="#9B5E9C"/>
<path transform="translate(542,245)" d="m0 0 7 2 4 5v7l-4 5-3 2h-7l-6-5-1-2v-7l5-6zm-3 2-5 5v7l5 5h7l5-4 1-2v-6l-6-5z" fill="#E3B8D1"/>
<path transform="translate(1348,799)" d="m0 0h1v32l-1 33h-1l-1-48 1-15z" fill="#A670A6"/>
<path transform="translate(475,134)" d="m0 0 4 1 5 9 5 3v4l-6-2-5-5-4-7z" fill="#FEF2EF"/>
<path transform="translate(927,255)" d="m0 0 2 3v5h35v1l-17 1h-13l-2 1-2 16h-1l-1-18z" fill="#DDB2D6"/>
<path transform="translate(527,285)" d="m0 0h6l-1 9-2 3h-3v2h-3v-6h2z" fill="#814C7D"/>
<path transform="translate(1301,468)" d="m0 0 7 1 10 8 7 6-3 1-2-1v-2h-3v-3h-3v-2l-6-1-7-4z" fill="#985B96"/>
<path transform="translate(635,936)" d="m0 0 6 1 12 3 7 1 33 1v1l-28 1-20-2-10-5z" fill="#F98192"/>
<path transform="translate(1319,916)" d="m0 0 3 1-9 8-14 8-9 3v-2l9-3v-2l5-2 4-1v-2l5-2 5-5z" fill="#976096"/>
<path transform="translate(539,231)" d="m0 0h8l9 3 4 4-5-1v-2h-25l2-2z" fill="#A46AA8"/>
<path transform="translate(479,323)" d="m0 0 5 2 10 6 14 5 7 1-1 2h-7l-13-5-14-9z" fill="#E0B5D4"/>
<path transform="translate(563,268)" d="m0 0 2 1-6 7-7 4-6 2-10-1-8-4-2-3 4 2 8 3h10l11-6z" fill="#E0B5D0"/>
<path transform="translate(1364,1060)" d="m0 0 2 1v3l-5 4-2 5-7 1-1-2 3-3h2l1-2 1 1v-4h2l2-2 2 1z" fill="#FB8695"/>
<path transform="translate(531,283)" d="m0 0 5 3v5l-6 9-4 4-4-2-3-9 2 1 2 7 5-2 4-8 1-6h-2z" fill="#E6BBCE"/>
<path transform="translate(489,131)" d="m0 0 2 1v2l6-1v5l-5 4-4-2h2v-2h-3l-1-6z" fill="#D8ADDC"/>
<path transform="translate(506,634)" d="m0 0 4 4 7 8v3h-6l-5-9z" fill="#F9EDEE"/>
<path transform="translate(585,753)" d="m0 0 8 1v1l-7 1-1 49h-1v-51z" fill="#864F82"/>
<path transform="translate(354,222)" d="m0 0 6 3 5 4 4 7v8l-5 6-6 3v-2l8-7 1-6-4-8-5-3v-2l-4-1z" fill="#F9ACA7"/>
<path transform="translate(1359,1264)" d="m0 0 5 2 10 7 12 6 7 3-4 1-16-8-12-8z" fill="#FA949C"/>
<path transform="translate(1235,777)" d="m0 0h11l9 1v1l-21 1-15 1 4-2z" fill="#955792"/>
<path transform="translate(575,282)" d="m0 0 2 1v2h2l2 4v4l-5 1h-8l-2 6h-2l1-7 4-2 10 1-1-4-3-2z" fill="#E1BAD0"/>
<path transform="translate(434,713)" d="m0 0 4 2 9 11 4 4-4-1-10-9-3-4z" fill="#985B97"/>
<path transform="translate(886,497)" d="m0 0 5 5 1 2v11l-2-3-4-9z" fill="#FEFDFC"/>
<path transform="translate(52,717)" d="m0 0 3 1v7l-2 3-1 19h-1v-25z" fill="#F8BEBA"/>
<path transform="translate(317,238)" d="m0 0h2l3 7 3 4v2l3 1v2h3v2l-5-2-5-4-4-9z" fill="#F8AFAA"/>
<path transform="translate(1484,1265)" d="m0 0m-1 1m-1 1 1 3-13 8-6 2 4-4z" fill="#FB929C"/>
<path transform="translate(531,250)" d="m0 0h2v9l4 5 8 2v1h-9l-1-3h-3l-2-6z" fill="#AB73B2"/>
<path transform="translate(393,174)" d="m0 0 20 1 1 2h-17l-5-1z" fill="#F8DDD9"/>
<path transform="translate(80,619)" d="m0 0v3l-8 16-3 3 3-9 5-11z" fill="#FABAB6"/>
<path transform="translate(584,883)" d="m0 0 3 4 3 7-1 3-5-2z" fill="#FBB3B1"/>
<path transform="translate(947,629)" d="m0 0h25v1l-17 2-8-2z" fill="#FEF8F3"/>
<path transform="translate(518,286)" d="m0 0 3 1 2-1 1 3v9l-2-3-1-5h-6l1-3z" fill="#935690"/>
<path transform="translate(632,151)" d="m0 0 2 1 4 3 3 1-6 3-5-1z" fill="#FEF4F1"/>
<path transform="translate(1346,776)" d="m0 0h1v17l-3-2v-10z" fill="#864F82"/>
<path transform="translate(597,495)" d="m0 0h12l-3 3h-9l-6-1v-1z" fill="#FEF8F3"/>
<path transform="translate(515,277)" d="m0 0h6l8 5-4 1-6-2-2-2h-2l-1 3-1-3z" fill="#9E62A0"/>
<path transform="translate(568,275)" d="m0 0 3 1 2 5-6-1-9 3 3-3 6-4z" fill="#9F64A2"/>
<path transform="translate(424,697)" d="m0 0 4 4 4 7v2l-4-2-4-7z" fill="#995D99"/>
<path transform="translate(558,241)" d="m0 0 5 2v8l-4-3z" fill="#7B4675"/>
<path transform="translate(1200,788)" d="m0 0 3 1-8 7-6 7-1-2 4-6h2l1-3z" fill="#965996"/>
<path transform="translate(1314,474)" d="m0 0 8 6 3 4-5-1v-2h-3v-3h-3z" fill="#A56BA7"/>
<path transform="translate(507,287)" d="m0 0 1 4h10l-3 2h-9l-1-3z" fill="#D7A9C9"/>
<path transform="translate(571,282)" d="m0 0 4 2 3 3v3l-3 1-4-6z" fill="#7B4676"/>
<path transform="translate(563,268)" d="m0 0 2 1-6 7-4 3h-5l4-3 7-5z" fill="#D2A3C8"/>
<path transform="translate(1319,916)" d="m0 0 3 1-9 8-3 1 1-3z" fill="#935C93"/>
<path transform="translate(624,927)" d="m0 0 5 2 4 4h-5l-5-4z" fill="#935792"/>
<path transform="translate(394,295)" d="m0 0 5 2 3 2-1 4-3 2v-7l-4-2z" fill="#F6BFBB"/>
<path transform="translate(531,283)" d="m0 0 5 3v5l-2 3h-2l1-9h-2z" fill="#D2A2C3"/>
<path transform="translate(671,1105)" d="m0 0h5l-4 3-9 4-3-1z" fill="#FB939D"/>
<path transform="translate(524,279)" d="m0 0 6 1 3-1 3 2-3 1 1 2-9-3z" fill="#F5E2E8"/>
<path transform="translate(368,241)" d="m0 0 1 3-5 6-6 3v-2l8-7z" fill="#F8AFAA"/>
<path transform="translate(559,498)" d="m0 0h10l-3 2-7 1-4-2z" fill="#FEF8F3"/>
<path transform="translate(554,293)" d="m0 0 4 4 1 4 5-1v3h-5l-5-8z" fill="#DEB2CB"/>
</svg>
