<?xml version="1.0" standalone="no"?>
<!DOCTYPE svg PUBLIC "-//W3C//DTD SVG 20010904//EN"
 "http://www.w3.org/TR/2001/REC-SVG-20010904/DTD/svg10.dtd">
<svg version="1.0" xmlns="http://www.w3.org/2000/svg"
 width="552.000000pt" height="452.000000pt" viewBox="0 0 552.000000 452.000000"
 preserveAspectRatio="xMidYMid meet">

<g transform="translate(0.000000,452.000000) scale(0.100000,-0.100000)"
fill="#000000" stroke="none">
<path d="M1835 3709 c-51 -29 -60 -85 -20 -124 50 -51 135 -18 135 52 0 58
-66 100 -115 72z m63 -41 c22 -22 14 -57 -13 -64 -45 -11 -71 29 -39 60 19 19
36 20 52 4z"/>
<path d="M2388 3600 c-131 -3 -241 -9 -245 -13 -23 -24 34 -27 405 -21 276 5
392 10 389 18 -8 24 -125 28 -549 16z"/>
<path d="M1772 3548 c-16 -16 -15 -28 3 -28 8 0 19 -9 25 -21 11 -20 12 -20
25 -2 21 26 18 38 -10 51 -31 15 -28 15 -43 0z"/>
<path d="M1933 3548 c-26 -13 -29 -26 -9 -53 13 -18 14 -18 25 4 8 13 18 20
27 17 17 -7 19 15 2 32 -14 14 -16 14 -45 0z"/>
<path d="M1771 3188 c-5 -13 -21 -36 -35 -53 -34 -39 -36 -85 -3 -85 36 0 58
32 64 93 6 59 -10 87 -26 45z"/>
<path d="M4085 2929 c-2 -8 -6 -65 -7 -128 l-3 -113 -39 -4 c-56 -5 -125 -43
-160 -87 -29 -36 -31 -44 -31 -122 0 -77 2 -86 31 -126 39 -54 102 -89 161
-89 l43 0 0 -37 c0 -103 -87 -225 -186 -262 -50 -19 -77 -21 -315 -21 l-260 0
-56 46 c-31 25 -73 53 -92 63 -100 50 -233 71 -381 59 -150 -11 -234 -9 -283
8 -53 18 -127 85 -147 134 l-13 31 -295 -2 c-314 -1 -311 -2 -312 47 0 12 8
25 18 29 26 11 281 25 420 24 68 -1 126 1 129 4 9 10 -63 120 -106 161 l-40
39 -185 -2 c-185 -2 -226 4 -226 33 0 9 -23 15 -75 20 -77 7 -169 34 -207 60
-12 9 -25 16 -29 16 -3 0 -6 -120 -5 -267 2 -252 3 -271 23 -315 31 -67 94
-132 156 -159 46 -21 70 -24 220 -27 l167 -4 0 -196 c0 -148 4 -209 16 -252
22 -80 76 -146 148 -184 l60 -31 280 2 c537 5 1163 5 1526 2 326 -3 370 -1
417 15 65 22 130 79 168 147 l30 54 0 610 0 610 -27 52 c-36 67 -89 120 -147
146 -39 17 -73 21 -213 25 -136 4 -169 2 -173 -9z"/>
</g>
</svg>
